<svg width="4953" height="3993" xmlns="http://www.w3.org/2000/svg" xmlns:xlink="http://www.w3.org/1999/xlink" xml:space="preserve" overflow="hidden"><g transform="translate(-528 -137)"><path d="M2484.25 429.5 2484.25 695.625 2423.5 695.625" stroke="#0E4B66" stroke-width="6.875" stroke-miterlimit="8" fill="none" fill-rule="evenodd"/><path d="M3782.5 1250.5 3782.5 1311.25 5182.55 1311.25 5182.55 1371.99" stroke="#125675" stroke-width="6.875" stroke-miterlimit="8" fill="none" fill-rule="evenodd"/><path d="M3782.5 1250.5 3782.5 1311.25 4482.53 1311.25 4482.53 1371.99" stroke="#125675" stroke-width="6.875" stroke-miterlimit="8" fill="none" fill-rule="evenodd"/><path d="M3550.5 1661.5 3550.5 2749.14 3637.28 2749.14" stroke="#125675" stroke-width="6.875" stroke-miterlimit="8" fill="none" fill-rule="evenodd"/><path d="M3550.5 1661.5 3550.5 2338.38 3637.28 2338.38" stroke="#125675" stroke-width="6.875" stroke-miterlimit="8" fill="none" fill-rule="evenodd"/><path d="M3550.5 1661.5 3550.5 1927.63 3637.28 1927.63" stroke="#125675" stroke-width="6.875" stroke-miterlimit="8" fill="none" fill-rule="evenodd"/><path d="M3782 1250.5 3782 1371.99" stroke="#125675" stroke-width="6.875" stroke-miterlimit="8" fill="none" fill-rule="evenodd"/><path d="M2850.5 1661.5 2850.5 2338.38 2937.28 2338.38" stroke="#125675" stroke-width="6.875" stroke-miterlimit="8" fill="none" fill-rule="evenodd"/><path d="M2850.5 1661.5 2850.5 1927.63 2937.28 1927.63" stroke="#125675" stroke-width="6.875" stroke-miterlimit="8" fill="none" fill-rule="evenodd"/><path d="M3782.53 1250.5 3782.53 1311.25 3082.5 1311.25 3082.5 1371.99" stroke="#125675" stroke-width="6.875" stroke-miterlimit="8" fill="none" fill-rule="evenodd"/><path d="M2150.5 2072.5 2150.5 3981.66 2237.28 3981.66" stroke="#125675" stroke-width="6.875" stroke-miterlimit="8" fill="none" fill-rule="evenodd"/><path d="M2150.5 2072.5 2150.5 3570.9 2237.28 3570.9" stroke="#125675" stroke-width="6.875" stroke-miterlimit="8" fill="none" fill-rule="evenodd"/><path d="M2150.5 2072.5 2150.5 3160.14 2237.28 3160.14" stroke="#125675" stroke-width="6.875" stroke-miterlimit="8" fill="none" fill-rule="evenodd"/><path d="M2150.5 2072.5 2150.5 2749.38 2237.28 2749.38" stroke="#125675" stroke-width="6.875" stroke-miterlimit="8" fill="none" fill-rule="evenodd"/><path d="M2150.5 2072.5 2150.5 2338.63 2237.28 2338.63" stroke="#125675" stroke-width="6.875" stroke-miterlimit="8" fill="none" fill-rule="evenodd"/><path d="M2382 1661.5 2382 1782.99" stroke="#125675" stroke-width="6.875" stroke-miterlimit="8" fill="none" fill-rule="evenodd"/><path d="M3782.55 1250.5 3782.55 1311.25 2382.5 1311.25 2382.5 1371.99" stroke="#125675" stroke-width="6.875" stroke-miterlimit="8" fill="none" fill-rule="evenodd"/><path d="M2484.5 429.5 2484.5 901.004 3781.86 901.004 3781.86 961.75" stroke="#0E4B66" stroke-width="6.875" stroke-miterlimit="8" fill="none" fill-rule="evenodd"/><path d="M1305.5 1661.5 1305.5 2338.38 1392.28 2338.38" stroke="#125675" stroke-width="6.875" stroke-miterlimit="8" fill="none" fill-rule="evenodd"/><path d="M1305.5 1661.5 1305.5 1927.63 1392.28 1927.63" stroke="#125675" stroke-width="6.875" stroke-miterlimit="8" fill="none" fill-rule="evenodd"/><path d="M1187.5 1250.5 1187.5 1311.25 1537.51 1311.25 1537.51 1371.99" stroke="#125675" stroke-width="6.875" stroke-miterlimit="8" fill="none" fill-rule="evenodd"/><path d="M605.5 2072.5 605.5 2338.63 692.28 2338.63" stroke="#125675" stroke-width="6.875" stroke-miterlimit="8" fill="none" fill-rule="evenodd"/><path d="M837 1661.5 837 1782.99" stroke="#125675" stroke-width="6.875" stroke-miterlimit="8" fill="none" fill-rule="evenodd"/><path d="M1187.51 1250.5 1187.51 1311.25 837.5 1311.25 837.5 1371.99" stroke="#125675" stroke-width="6.875" stroke-miterlimit="8" fill="none" fill-rule="evenodd"/><path d="M2484.86 429.5 2484.86 901.004 1187.5 901.004 1187.5 961.75" stroke="#0E4B66" stroke-width="6.875" stroke-miterlimit="8" fill="none" fill-rule="evenodd"/><rect x="2195.5" y="140.5" width="578" height="289" stroke="#FFFFFF" stroke-width="6.875" stroke-miterlimit="8" fill="#7030A0"/><text fill="#FFFFFF" font-family="Calibri,Calibri_MSFontService,sans-serif" font-weight="400" font-size="73" transform="matrix(1 0 0 1 2344.59 305)">President </text><rect x="898.5" y="961.5" width="578" height="289" stroke="#FFFFFF" stroke-width="6.875" stroke-miterlimit="8" fill="#7030A0"/><text fill="#FFFFFF" font-family="Calibri,Calibri_MSFontService,sans-serif" font-weight="400" font-size="73" transform="matrix(1 0 0 1 976.229 1127)">Vice President</text><rect x="548.5" y="1372.5" width="578" height="289" stroke="#FFFFFF" stroke-width="6.875" stroke-miterlimit="8" fill="#156082"/><text fill="#FFFFFF" font-family="Calibri,Calibri_MSFontService,sans-serif" font-weight="400" font-size="73" transform="matrix(1 0 0 1 656.216 1537)">[Secratariat]</text><rect x="548.5" y="1783.5" width="578" height="289" stroke="#FFFFFF" stroke-width="6.875" stroke-miterlimit="8" fill="#7030A0"/><text fill="#FFFFFF" font-family="Calibri,Calibri_MSFontService,sans-serif" font-weight="400" font-size="73" transform="matrix(1 0 0 1 573.228 1948)">General Secretary</text><rect x="692.5" y="2193.5" width="579" height="290" stroke="#FFFFFF" stroke-width="6.875" stroke-miterlimit="8" fill="#FFC000"/><text fill="#FFFFFF" font-family="Calibri,Calibri_MSFontService,sans-serif" font-weight="400" font-size="73" transform="matrix(1 0 0 1 728.85 2359)">Human Resource</text><rect x="1248.5" y="1372.5" width="578" height="289" stroke="#FFFFFF" stroke-width="6.875" stroke-miterlimit="8" fill="#156082"/><text fill="#FFFFFF" font-family="Calibri,Calibri_MSFontService,sans-serif" font-weight="400" font-size="73" transform="matrix(1 0 0 1 1402.25 1497)">Research </text><text fill="#FFFFFF" font-family="Calibri,Calibri_MSFontService,sans-serif" font-weight="400" font-size="73" transform="matrix(1 0 0 1 1357.25 1577)">Department</text><rect x="1392.5" y="1783.5" width="579" height="289" stroke="#FFFFFF" stroke-width="6.875" stroke-miterlimit="8" fill="#156082"/><text fill="#FFFFFF" font-family="Calibri,Calibri_MSFontService,sans-serif" font-weight="400" font-size="73" transform="matrix(1 0 0 1 1460.88 1948)">Editorial Board</text><rect x="1392.5" y="2193.5" width="579" height="290" stroke="#FFFFFF" stroke-width="6.875" stroke-miterlimit="8" fill="#156082"/><text fill="#FFFFFF" font-family="Calibri,Calibri_MSFontService,sans-serif" font-weight="400" font-size="73" transform="matrix(1 0 0 1 1508.89 2318)">Educational </text><text fill="#FFFFFF" font-family="Calibri,Calibri_MSFontService,sans-serif" font-weight="400" font-size="73" transform="matrix(1 0 0 1 1454.89 2398)">Outreach Team</text><rect x="3492.5" y="961.5" width="579" height="289" stroke="#FFFFFF" stroke-width="6.875" stroke-miterlimit="8" fill="#7030A0"/><text fill="#FFFFFF" font-family="Calibri,Calibri_MSFontService,sans-serif" font-weight="400" font-size="73" transform="matrix(1 0 0 1 3578.96 1126)">Vice President </text><rect x="2092.5" y="1372.5" width="579" height="289" stroke="#FFFFFF" stroke-width="6.875" stroke-miterlimit="8" fill="#156082"/><text fill="#FFFFFF" font-family="Calibri,Calibri_MSFontService,sans-serif" font-weight="400" font-size="73" transform="matrix(1 0 0 1 2149.9 1497)">[Department of  </text><text fill="#FFFFFF" font-family="Calibri,Calibri_MSFontService,sans-serif" font-weight="400" font-size="73" transform="matrix(1 0 0 1 2243.9 1577)">Publicity]</text><rect x="2092.5" y="1783.5" width="579" height="289" stroke="#FFFFFF" stroke-width="6.875" stroke-miterlimit="8" fill="#7030A0"/><text fill="#FFFFFF" font-family="Calibri,Calibri_MSFontService,sans-serif" font-weight="400" font-size="73" transform="matrix(1 0 0 1 2169.9 1908)">Chief Publicity </text><text fill="#FFFFFF" font-family="Calibri,Calibri_MSFontService,sans-serif" font-weight="400" font-size="73" transform="matrix(1 0 0 1 2280.9 1988)">Officer</text><rect x="2237.5" y="2193.5" width="578" height="290" stroke="#FFFFFF" stroke-width="6.875" stroke-miterlimit="8" fill="#FFC000"/><text fill="#FFFFFF" font-family="Calibri,Calibri_MSFontService,sans-serif" font-weight="400" font-size="73" transform="matrix(1 0 0 1 2343.53 2318)">Multi</text><text fill="#FFFFFF" font-family="Calibri,Calibri_MSFontService,sans-serif" font-weight="400" font-size="73" transform="matrix(1 0 0 1 2501.53 2318)">-</text><text fill="#FFFFFF" font-family="Calibri,Calibri_MSFontService,sans-serif" font-weight="400" font-size="73" transform="matrix(1 0 0 1 2523.53 2318)">media </text><text fill="#FFFFFF" font-family="Calibri,Calibri_MSFontService,sans-serif" font-weight="400" font-size="73" transform="matrix(1 0 0 1 2395.53 2398)">Designer</text><rect x="2237.5" y="2604.5" width="578" height="289" stroke="#FFFFFF" stroke-width="6.875" stroke-miterlimit="8" fill="#FFC000"/><text fill="#FFFFFF" font-family="Calibri,Calibri_MSFontService,sans-serif" font-weight="400" font-size="73" transform="matrix(1 0 0 1 2265.53 2769)">Marketing Officer</text><rect x="2237.5" y="3015.5" width="578" height="289" stroke="#FFFFFF" stroke-width="6.875" stroke-miterlimit="8" fill="#FFC000"/><text fill="#FFFFFF" font-family="Calibri,Calibri_MSFontService,sans-serif" font-weight="400" font-size="73" transform="matrix(1 0 0 1 2265.53 3180)">Marketing Officer </text><rect x="2237.5" y="3426.5" width="578" height="289" stroke="#FFFFFF" stroke-width="6.875" stroke-miterlimit="8" fill="#FFC000"/><text fill="#FFFFFF" font-family="Calibri,Calibri_MSFontService,sans-serif" font-weight="400" font-size="73" transform="matrix(1 0 0 1 2311.53 3591)">Video Director</text><rect x="2237.5" y="3836.5" width="578" height="290" stroke="#FFFFFF" stroke-width="6.875" stroke-miterlimit="8" fill="#FFC000"/><text fill="#FFFFFF" font-family="Calibri,Calibri_MSFontService,sans-serif" font-weight="400" font-size="73" transform="matrix(1 0 0 1 2342.55 4002)">Video Editor</text><rect x="2792.5" y="1372.5" width="579" height="289" stroke="#FFFFFF" stroke-width="6.875" stroke-miterlimit="8" fill="#156082"/><text fill="#FFFFFF" font-family="Calibri,Calibri_MSFontService,sans-serif" font-weight="400" font-size="73" transform="matrix(1 0 0 1 2849.93 1497)">[Department of </text><text fill="#FFFFFF" font-family="Calibri,Calibri_MSFontService,sans-serif" font-weight="400" font-size="73" transform="matrix(1 0 0 1 3030.93 1577)">I.T.]</text><rect x="2937.5" y="1783.5" width="578" height="289" stroke="#FFFFFF" stroke-width="6.875" stroke-miterlimit="8" fill="#7030A0"/><text fill="#FFFFFF" font-family="Calibri,Calibri_MSFontService,sans-serif" font-weight="400" font-size="73" transform="matrix(1 0 0 1 2986.57 1948)">Chief Technician</text><rect x="2937.5" y="2193.5" width="578" height="290" stroke="#FFFFFF" stroke-width="6.875" stroke-miterlimit="8" fill="#FFC000"/><text fill="#FFFFFF" font-family="Calibri,Calibri_MSFontService,sans-serif" font-weight="400" font-size="73" transform="matrix(1 0 0 1 3087.56 2359)">Specialist</text><rect x="3492.5" y="1372.5" width="579" height="289" stroke="#FFFFFF" stroke-width="6.875" stroke-miterlimit="8" fill="#156082"/><text fill="#FFFFFF" font-family="Calibri,Calibri_MSFontService,sans-serif" font-weight="400" font-size="73" transform="matrix(1 0 0 1 3549.95 1497)">[Department of </text><text fill="#FFFFFF" font-family="Calibri,Calibri_MSFontService,sans-serif" font-weight="400" font-size="73" transform="matrix(1 0 0 1 3644.95 1577)">Treasury]</text><rect x="3637.5" y="1783.5" width="578" height="289" stroke="#FFFFFF" stroke-width="6.875" stroke-miterlimit="8" fill="#7030A0"/><text fill="#FFFFFF" font-family="Calibri,Calibri_MSFontService,sans-serif" font-weight="400" font-size="73" transform="matrix(1 0 0 1 3702.6 1948)">Chief Treasurer </text><rect x="3637.5" y="2193.5" width="578" height="290" stroke="#FFFFFF" stroke-width="6.875" stroke-miterlimit="8" fill="#FFC000"/><text fill="#FFFFFF" font-family="Calibri,Calibri_MSFontService,sans-serif" font-weight="400" font-size="73" transform="matrix(1 0 0 1 3758.6 2359)">Treasurer 1</text><rect x="3637.5" y="2604.5" width="578" height="289" stroke="#FFFFFF" stroke-width="6.875" stroke-miterlimit="8" fill="#FFC000"/><text fill="#FFFFFF" font-family="Calibri,Calibri_MSFontService,sans-serif" font-weight="400" font-size="73" transform="matrix(1 0 0 1 3758.6 2769)">Treasurer 2</text><rect x="4192.5" y="1372.5" width="579" height="289" stroke="#FFFFFF" stroke-width="6.875" stroke-miterlimit="8" fill="#156082"/><text fill="#FFFFFF" font-family="Calibri,Calibri_MSFontService,sans-serif" font-weight="400" font-size="73" transform="matrix(1 0 0 1 4243.99 1537)">[Business Team]</text><rect x="4892.5" y="1372.5" width="579" height="289" stroke="#FFFFFF" stroke-width="6.875" stroke-miterlimit="8" fill="#156082"/><text fill="#FFFFFF" font-family="Calibri,Calibri_MSFontService,sans-serif" font-weight="400" font-size="73" transform="matrix(1 0 0 1 4968.01 1537)">[LIaison Team]</text><rect x="1845.5" y="550.5" width="578" height="290" stroke="#FFFFFF" stroke-width="6.875" stroke-miterlimit="8" fill="#00B0F0"/><text fill="#FFFFFF" font-family="Calibri,Calibri_MSFontService,sans-serif" font-weight="400" font-size="73" transform="matrix(1 0 0 1 2022.58 716)">Auditor</text></g></svg>