<svg width="5813" height="3826" xmlns="http://www.w3.org/2000/svg" xmlns:xlink="http://www.w3.org/1999/xlink" xml:space="preserve" overflow="hidden"><g transform="translate(-758 -132)"><path d="M3161.71 412.5 3161.71 667.496 3103.5 667.496" stroke="#0E4B66" stroke-width="6.875" stroke-miterlimit="8" fill="none" fill-rule="evenodd"/><path d="M4404.5 1199.5 4404.5 1257.71 5746 1257.71 5746 1315.91" stroke="#125675" stroke-width="6.875" stroke-miterlimit="8" fill="none" fill-rule="evenodd"/><path d="M4404.5 1199.5 4404.5 1257.71 5075.25 1257.71 5075.25 1315.91" stroke="#125675" stroke-width="6.875" stroke-miterlimit="8" fill="none" fill-rule="evenodd"/><path d="M4183.5 1592.5 4183.5 2634.66 4266.65 2634.66" stroke="#125675" stroke-width="6.875" stroke-miterlimit="8" fill="none" fill-rule="evenodd"/><path d="M4183.5 1592.5 4183.5 2241.08 4266.65 2241.08" stroke="#125675" stroke-width="6.875" stroke-miterlimit="8" fill="none" fill-rule="evenodd"/><path d="M4183.5 1592.5 4183.5 1847.5 4266.65 1847.5" stroke="#125675" stroke-width="6.875" stroke-miterlimit="8" fill="none" fill-rule="evenodd"/><path d="M4405 1199.5 4405 1315.91" stroke="#125675" stroke-width="6.875" stroke-miterlimit="8" fill="none" fill-rule="evenodd"/><path d="M3512.5 1592.5 3512.5 2241.08 3595.65 2241.08" stroke="#125675" stroke-width="6.875" stroke-miterlimit="8" fill="none" fill-rule="evenodd"/><path d="M3512.5 1592.5 3512.5 1847.5 3595.65 1847.5" stroke="#125675" stroke-width="6.875" stroke-miterlimit="8" fill="none" fill-rule="evenodd"/><path d="M4405.25 1199.5 4405.25 1257.71 3734.5 1257.71 3734.5 1315.91" stroke="#125675" stroke-width="6.875" stroke-miterlimit="8" fill="none" fill-rule="evenodd"/><path d="M2841.5 1986.5 2841.5 3815.82 2924.65 3815.82" stroke="#125675" stroke-width="6.875" stroke-miterlimit="8" fill="none" fill-rule="evenodd"/><path d="M2841.5 1986.5 2841.5 3422.24 2924.65 3422.24" stroke="#125675" stroke-width="6.875" stroke-miterlimit="8" fill="none" fill-rule="evenodd"/><path d="M2841.5 1986.5 2841.5 3028.66 2924.65 3028.66" stroke="#125675" stroke-width="6.875" stroke-miterlimit="8" fill="none" fill-rule="evenodd"/><path d="M2841.5 1986.5 2841.5 2635.08 2924.65 2635.08" stroke="#125675" stroke-width="6.875" stroke-miterlimit="8" fill="none" fill-rule="evenodd"/><path d="M2841.5 1986.5 2841.5 2241.5 2924.65 2241.5" stroke="#125675" stroke-width="6.875" stroke-miterlimit="8" fill="none" fill-rule="evenodd"/><path d="M3063 1592.5 3063 1708.91" stroke="#125675" stroke-width="6.875" stroke-miterlimit="8" fill="none" fill-rule="evenodd"/><path d="M4405 1199.5 4405 1257.71 3063.5 1257.71 3063.5 1315.91" stroke="#125675" stroke-width="6.875" stroke-miterlimit="8" fill="none" fill-rule="evenodd"/><path d="M3161.5 412.5 3161.5 864.287 4404.61 864.287 4404.61 922.492" stroke="#0E4B66" stroke-width="6.875" stroke-miterlimit="8" fill="none" fill-rule="evenodd"/><path d="M2032.5 1592.5 2032.5 2241.08 2115.65 2241.08" stroke="#125675" stroke-width="6.875" stroke-miterlimit="8" fill="none" fill-rule="evenodd"/><path d="M2032.5 1592.5 2032.5 1847.5 2115.65 1847.5" stroke="#125675" stroke-width="6.875" stroke-miterlimit="8" fill="none" fill-rule="evenodd"/><path d="M1918.5 1199.5 1918.5 1257.71 2253.88 1257.71 2253.88 1315.91" stroke="#125675" stroke-width="6.875" stroke-miterlimit="8" fill="none" fill-rule="evenodd"/><path d="M1361.5 1986.5 1361.5 2241.5 1444.65 2241.5" stroke="#125675" stroke-width="6.875" stroke-miterlimit="8" fill="none" fill-rule="evenodd"/><path d="M1583 1592.5 1583 1708.91" stroke="#125675" stroke-width="6.875" stroke-miterlimit="8" fill="none" fill-rule="evenodd"/><path d="M1918.88 1199.5 1918.88 1257.71 1583.5 1257.71 1583.5 1315.91" stroke="#125675" stroke-width="6.875" stroke-miterlimit="8" fill="none" fill-rule="evenodd"/><path d="M3161.61 412.5 3161.61 864.287 1918.5 864.287 1918.5 922.492" stroke="#0E4B66" stroke-width="6.875" stroke-miterlimit="8" fill="none" fill-rule="evenodd"/><rect x="2884.5" y="135.5" width="554" height="277" stroke="#FFFFFF" stroke-width="6.875" stroke-miterlimit="8" fill="#7030A0"/><text fill="#FFFFFF" font-family="Calibri,Calibri_MSFontService,sans-serif" font-weight="400" font-size="64" transform="matrix(1 0 0 1 3038.28 242)">President </text><text fill="#FFFFFF" font-family="Calibri,Calibri_MSFontService,sans-serif" font-weight="400" font-size="64" transform="matrix(1 0 0 1 3074.28 340)">(Jacky)</text><rect x="1641.5" y="922.5" width="554" height="277" stroke="#FFFFFF" stroke-width="6.875" stroke-miterlimit="8" fill="#7030A0"/><text fill="#FFFFFF" font-family="Calibri,Calibri_MSFontService,sans-serif" font-weight="400" font-size="64" transform="matrix(1 0 0 1 1740.18 980)">Vice President </text><text fill="#FFFFFF" font-family="Calibri,Calibri_MSFontService,sans-serif" font-weight="400" font-size="64" transform="matrix(1 0 0 1 1825.18 1078)">(Erwin)</text><rect x="1306.5" y="1315.5" width="554" height="277" stroke="#FFFFFF" stroke-width="6.875" stroke-miterlimit="8" fill="#156082"/><text fill="#FFFFFF" font-family="Calibri,Calibri_MSFontService,sans-serif" font-weight="400" font-size="64" transform="matrix(1 0 0 1 1423.8 1472)">[Secratariat]</text><rect x="1306.5" y="1709.5" width="554" height="277" stroke="#FFFFFF" stroke-width="6.875" stroke-miterlimit="8" fill="#7030A0"/><text fill="#FFFFFF" font-family="Calibri,Calibri_MSFontService,sans-serif" font-weight="400" font-size="64" transform="matrix(1 0 0 1 1351.81 1816)">General Secretary</text><text fill="#FFFFFF" font-family="Calibri,Calibri_MSFontService,sans-serif" font-weight="400" font-size="64" transform="matrix(1 0 0 1 1475.81 1914)">(Fatima) </text><rect x="1444.5" y="2102.5" width="555" height="278" stroke="#FFFFFF" stroke-width="6.875" stroke-miterlimit="8" fill="#FFC000"/><text fill="#FFFFFF" font-family="Calibri,Calibri_MSFontService,sans-serif" font-weight="400" font-size="64" transform="matrix(1 0 0 1 1499.38 2210)">Human Resource</text><text fill="#FFFFFF" font-family="Calibri,Calibri_MSFontService,sans-serif" font-weight="400" font-size="64" transform="matrix(1 0 0 1 1628.38 2308)">(Nesta)</text><rect x="1976.5" y="1315.5" width="555" height="277" stroke="#FFFFFF" stroke-width="6.875" stroke-miterlimit="8" fill="#156082"/><text fill="#FFFFFF" font-family="Calibri,Calibri_MSFontService,sans-serif" font-weight="400" font-size="64" transform="matrix(1 0 0 1 2135.55 1436)">Research </text><text fill="#FFFFFF" font-family="Calibri,Calibri_MSFontService,sans-serif" font-weight="400" font-size="64" transform="matrix(1 0 0 1 2095.55 1507)">Department</text><rect x="2115.5" y="1709.5" width="554" height="277" stroke="#FFFFFF" stroke-width="6.875" stroke-miterlimit="8" fill="#156082"/><text fill="#FFFFFF" font-family="Calibri,Calibri_MSFontService,sans-serif" font-weight="400" font-size="64" transform="matrix(1 0 0 1 2199.14 1865)">Editorial Board</text><rect x="2115.5" y="2102.5" width="554" height="278" stroke="#FFFFFF" stroke-width="6.875" stroke-miterlimit="8" fill="#156082"/><text fill="#FFFFFF" font-family="Calibri,Calibri_MSFontService,sans-serif" font-weight="400" font-size="64" transform="matrix(1 0 0 1 2240.14 2224)">Educational </text><text fill="#FFFFFF" font-family="Calibri,Calibri_MSFontService,sans-serif" font-weight="400" font-size="64" transform="matrix(1 0 0 1 2194.14 2295)">Outreach Team</text><rect x="4127.5" y="922.5" width="555" height="277" stroke="#FFFFFF" stroke-width="6.875" stroke-miterlimit="8" fill="#7030A0"/><text fill="#FFFFFF" font-family="Calibri,Calibri_MSFontService,sans-serif" font-weight="400" font-size="64" transform="matrix(1 0 0 1 4226.4 1029)">Vice President </text><text fill="#FFFFFF" font-family="Calibri,Calibri_MSFontService,sans-serif" font-weight="400" font-size="64" transform="matrix(1 0 0 1 4335.4 1127)">(Bibi)</text><rect x="2786.5" y="1315.5" width="554" height="277" stroke="#FFFFFF" stroke-width="6.875" stroke-miterlimit="8" fill="#156082"/><text fill="#FFFFFF" font-family="Calibri,Calibri_MSFontService,sans-serif" font-weight="400" font-size="64" transform="matrix(1 0 0 1 2859.9 1436)">[Department of  </text><text fill="#FFFFFF" font-family="Calibri,Calibri_MSFontService,sans-serif" font-weight="400" font-size="64" transform="matrix(1 0 0 1 2940.9 1507)">Publicity]</text><rect x="2786.5" y="1709.5" width="554" height="277" stroke="#FFFFFF" stroke-width="6.875" stroke-miterlimit="8" fill="#7030A0"/><text fill="#FFFFFF" font-family="Calibri,Calibri_MSFontService,sans-serif" font-weight="400" font-size="64" transform="matrix(1 0 0 1 2876.9 1781)">Chief Publicity </text><text fill="#FFFFFF" font-family="Calibri,Calibri_MSFontService,sans-serif" font-weight="400" font-size="64" transform="matrix(1 0 0 1 2973.9 1852)">Officer</text><text fill="#FFFFFF" font-family="Calibri,Calibri_MSFontService,sans-serif" font-weight="400" font-size="64" transform="matrix(1 0 0 1 2974.9 1950)">(</text><text fill="#FFFFFF" font-family="Calibri,Calibri_MSFontService,sans-serif" font-weight="400" font-size="64" transform="matrix(1 0 0 1 2993.9 1950)">Kinza)</text><rect x="2924.5" y="2102.5" width="555" height="278" stroke="#FFFFFF" stroke-width="6.875" stroke-miterlimit="8" fill="#FFC000"/><text fill="#FFFFFF" font-family="Calibri,Calibri_MSFontService,sans-serif" font-weight="400" font-size="64" transform="matrix(1 0 0 1 3039.47 2175)">Multi</text><text fill="#FFFFFF" font-family="Calibri,Calibri_MSFontService,sans-serif" font-weight="400" font-size="64" transform="matrix(1 0 0 1 3179.47 2175)">-</text><text fill="#FFFFFF" font-family="Calibri,Calibri_MSFontService,sans-serif" font-weight="400" font-size="64" transform="matrix(1 0 0 1 3199.47 2175)">media </text><text fill="#FFFFFF" font-family="Calibri,Calibri_MSFontService,sans-serif" font-weight="400" font-size="64" transform="matrix(1 0 0 1 3086.47 2246)">Designer</text><text fill="#FFFFFF" font-family="Calibri,Calibri_MSFontService,sans-serif" font-weight="400" font-size="64" transform="matrix(1 0 0 1 3102.47 2344)">(Seojin</text><text fill="#FFFFFF" font-family="Calibri,Calibri_MSFontService,sans-serif" font-weight="400" font-size="64" transform="matrix(1 0 0 1 3280.47 2344)">)</text><rect x="2924.5" y="2496.5" width="555" height="277" stroke="#FFFFFF" stroke-width="6.875" stroke-miterlimit="8" fill="#FFC000"/><text fill="#FFFFFF" font-family="Calibri,Calibri_MSFontService,sans-serif" font-weight="400" font-size="64" transform="matrix(1 0 0 1 2972.48 2603)">Marketing Officer</text><text fill="#FFFFFF" font-family="Calibri,Calibri_MSFontService,sans-serif" font-weight="400" font-size="64" transform="matrix(1 0 0 1 3062.48 2701)">(</text><text fill="#FFFFFF" font-family="Calibri,Calibri_MSFontService,sans-serif" font-weight="400" font-size="64" transform="matrix(1 0 0 1 3081.48 2701)">Theresia)</text><text fill="#FFFFFF" font-family="Calibri,Calibri_MSFontService,sans-serif" font-weight="400" font-size="64" transform="matrix(1 0 0 1 3321.48 2701)">)</text><rect x="2924.5" y="2890.5" width="555" height="277" stroke="#FFFFFF" stroke-width="6.875" stroke-miterlimit="8" fill="#FFC000"/><text fill="#FFFFFF" font-family="Calibri,Calibri_MSFontService,sans-serif" font-weight="400" font-size="64" transform="matrix(1 0 0 1 2972.48 2997)">Marketing Officer </text><text fill="#FFFFFF" font-family="Calibri,Calibri_MSFontService,sans-serif" font-weight="400" font-size="64" transform="matrix(1 0 0 1 3182.48 3095)">()</text><rect x="2924.5" y="3283.5" width="555" height="277" stroke="#FFFFFF" stroke-width="6.875" stroke-miterlimit="8" fill="#FFC000"/><text fill="#FFFFFF" font-family="Calibri,Calibri_MSFontService,sans-serif" font-weight="400" font-size="64" transform="matrix(1 0 0 1 3013.48 3440)">Video Director</text><rect x="2924.5" y="3677.5" width="555" height="277" stroke="#FFFFFF" stroke-width="6.875" stroke-miterlimit="8" fill="#FFC000"/><text fill="#FFFFFF" font-family="Calibri,Calibri_MSFontService,sans-serif" font-weight="400" font-size="64" transform="matrix(1 0 0 1 3041.48 3833)">Video Editor</text><rect x="3456.5" y="1315.5" width="555" height="277" stroke="#FFFFFF" stroke-width="6.875" stroke-miterlimit="8" fill="#156082"/><text fill="#FFFFFF" font-family="Calibri,Calibri_MSFontService,sans-serif" font-weight="400" font-size="64" transform="matrix(1 0 0 1 3479.65 1472)">[Department of I.T.]</text><rect x="3595.5" y="1709.5" width="554" height="277" stroke="#FFFFFF" stroke-width="6.875" stroke-miterlimit="8" fill="#7030A0"/><text fill="#FFFFFF" font-family="Calibri,Calibri_MSFontService,sans-serif" font-weight="400" font-size="64" transform="matrix(1 0 0 1 3661.23 1816)">Chief Technician</text><text fill="#FFFFFF" font-family="Calibri,Calibri_MSFontService,sans-serif" font-weight="400" font-size="64" transform="matrix(1 0 0 1 3805.23 1914)">(Eric)</text><rect x="3595.5" y="2102.5" width="554" height="278" stroke="#FFFFFF" stroke-width="6.875" stroke-miterlimit="8" fill="#FFC000"/><text fill="#FFFFFF" font-family="Calibri,Calibri_MSFontService,sans-serif" font-weight="400" font-size="64" transform="matrix(1 0 0 1 3750.23 2210)">Specialist</text><text fill="#FFFFFF" font-family="Calibri,Calibri_MSFontService,sans-serif" font-weight="400" font-size="64" transform="matrix(1 0 0 1 3745.23 2308)">(Ingram*)</text><rect x="4127.5" y="1315.5" width="555" height="277" stroke="#FFFFFF" stroke-width="6.875" stroke-miterlimit="8" fill="#156082"/><text fill="#FFFFFF" font-family="Calibri,Calibri_MSFontService,sans-serif" font-weight="400" font-size="64" transform="matrix(1 0 0 1 4201.4 1436)">[Department of </text><text fill="#FFFFFF" font-family="Calibri,Calibri_MSFontService,sans-serif" font-weight="400" font-size="64" transform="matrix(1 0 0 1 4283.4 1507)">Treasury]</text><rect x="4266.5" y="1709.5" width="554" height="277" stroke="#FFFFFF" stroke-width="6.875" stroke-miterlimit="8" fill="#7030A0"/><text fill="#FFFFFF" font-family="Calibri,Calibri_MSFontService,sans-serif" font-weight="400" font-size="64" transform="matrix(1 0 0 1 4345.97 1816)">Chief Treasurer </text><text fill="#FFFFFF" font-family="Calibri,Calibri_MSFontService,sans-serif" font-weight="400" font-size="64" transform="matrix(1 0 0 1 4402.97 1914)">(Charlotte)</text><rect x="4266.5" y="2102.5" width="554" height="278" stroke="#FFFFFF" stroke-width="6.875" stroke-miterlimit="8" fill="#FFC000"/><text fill="#FFFFFF" font-family="Calibri,Calibri_MSFontService,sans-serif" font-weight="400" font-size="64" transform="matrix(1 0 0 1 4395.97 2210)">Treasurer 1</text><text fill="#FFFFFF" font-family="Calibri,Calibri_MSFontService,sans-serif" font-weight="400" font-size="64" transform="matrix(1 0 0 1 4442.97 2308)">(Celine) </text><rect x="4266.5" y="2496.5" width="554" height="277" stroke="#FFFFFF" stroke-width="6.875" stroke-miterlimit="8" fill="#FFC000"/><text fill="#FFFFFF" font-family="Calibri,Calibri_MSFontService,sans-serif" font-weight="400" font-size="64" transform="matrix(1 0 0 1 4395.97 2603)">Treasurer 2</text><text fill="#FFFFFF" font-family="Calibri,Calibri_MSFontService,sans-serif" font-weight="400" font-size="64" transform="matrix(1 0 0 1 4427.97 2701)">(</text><text fill="#FFFFFF" font-family="Calibri,Calibri_MSFontService,sans-serif" font-weight="400" font-size="64" transform="matrix(1 0 0 1 4446.97 2701)">Yashika)</text><rect x="4798.5" y="1315.5" width="554" height="277" stroke="#FFFFFF" stroke-width="6.875" stroke-miterlimit="8" fill="#156082"/><text fill="#FFFFFF" font-family="Calibri,Calibri_MSFontService,sans-serif" font-weight="400" font-size="64" transform="matrix(1 0 0 1 4866.14 1472)">[Business Team]</text><rect x="5469.5" y="1315.5" width="554" height="277" stroke="#FFFFFF" stroke-width="6.875" stroke-miterlimit="8" fill="#156082"/><text fill="#FFFFFF" font-family="Calibri,Calibri_MSFontService,sans-serif" font-weight="400" font-size="64" transform="matrix(1 0 0 1 5558.9 1472)">[LIaison Team]</text><rect x="2549.5" y="528.5" width="554" height="277" stroke="#FFFFFF" stroke-width="6.875" stroke-miterlimit="8" fill="#00B0F0"/><text fill="#FFFFFF" font-family="Calibri,Calibri_MSFontService,sans-serif" font-weight="400" font-size="64" transform="matrix(1 0 0 1 2727.9 636)">Auditor</text><text fill="#FFFFFF" font-family="Calibri,Calibri_MSFontService,sans-serif" font-weight="400" font-size="64" transform="matrix(1 0 0 1 2665.9 734)">(Howard Yu)</text></g></svg>