<svg xmlns="http://www.w3.org/2000/svg" xml:space="preserve" width="4953" height="3993" overflow="hidden">
  <path fill="none" stroke="#0E4B66" stroke-miterlimit="8" stroke-width="6.875" d="M1956.25 292.5v266.125h-60.75"/>
  <path fill="none" stroke="#125675" stroke-miterlimit="8" stroke-width="6.875" d="M3254.5 1113.5v60.75h1400.05v60.74"/>
  <path fill="none" stroke="#125675" stroke-miterlimit="8" stroke-width="6.875" d="M3254.5 1113.5v60.75h700.03v60.74M3022.5 1524.5v1087.64h86.78"/>
  <path fill="none" stroke="#125675" stroke-miterlimit="8" stroke-width="6.875" d="M3022.5 1524.5v676.88h86.78"/>
  <path fill="none" stroke="#125675" stroke-miterlimit="8" stroke-width="6.875" d="M3022.5 1524.5v266.13h86.78M3254 1113.5v121.49m-931.5 289.51v676.88h86.78"/>
  <path fill="none" stroke="#125675" stroke-miterlimit="8" stroke-width="6.875" d="M2322.5 1524.5v266.13h86.78m845.25-677.13v60.75H2554.5v60.74m-932 700.51v1909.16h86.78"/>
  <path fill="none" stroke="#125675" stroke-miterlimit="8" stroke-width="6.875" d="M1622.5 1935.5v1498.4h86.78"/>
  <path fill="none" stroke="#125675" stroke-miterlimit="8" stroke-width="6.875" d="M1622.5 1935.5v1087.64h86.78"/>
  <path fill="none" stroke="#125675" stroke-miterlimit="8" stroke-width="6.875" d="M1622.5 1935.5v676.88h86.78"/>
  <path fill="none" stroke="#125675" stroke-miterlimit="8" stroke-width="6.875" d="M1622.5 1935.5v266.13h86.78M1854 1524.5v121.49m1400.55-532.49v60.75H1854.5v60.74"/>
  <path fill="none" stroke="#0E4B66" stroke-miterlimit="8" stroke-width="6.875" d="M1956.5 292.5v471.504h1297.36v60.746"/>
  <path fill="none" stroke="#125675" stroke-miterlimit="8" stroke-width="6.875" d="M777.5 1524.5v676.88h86.78"/>
  <path fill="none" stroke="#125675" stroke-miterlimit="8" stroke-width="6.875" d="M777.5 1524.5v266.13h86.78M659.5 1113.5v60.75h350.01v60.74M77.5 1935.5v266.13h86.78M309 1524.5v121.49"/>
  <path fill="none" stroke="#125675" stroke-miterlimit="8" stroke-width="6.875" d="M659.51 1113.5v60.75H309.5v60.74"/>
  <path fill="none" stroke="#0E4B66" stroke-miterlimit="8" stroke-width="6.875" d="M1956.86 292.5v471.504H659.5v60.746"/>
  <path fill="#7030A0" stroke="#FFF" stroke-miterlimit="8" stroke-width="6.875" d="M1667.5 3.5h578v289h-578z"/>
  <text fill="#FFF" font-family="Calibri,Calibri_MSFontService,sans-serif" font-size="73" font-weight="400" transform="translate(1816.59 168)">President </text>
  <path fill="#7030A0" stroke="#FFF" stroke-miterlimit="8" stroke-width="6.875" d="M370.5 824.5h578v289h-578z"/>
  <text fill="#FFF" font-family="Calibri,Calibri_MSFontService,sans-serif" font-size="73" font-weight="400" transform="translate(448.229 990)">Vice President</text>
  <path fill="#156082" stroke="#FFF" stroke-miterlimit="8" stroke-width="6.875" d="M20.5 1235.5h578v289h-578z"/>
  <text fill="#FFF" font-family="Calibri,Calibri_MSFontService,sans-serif" font-size="73" font-weight="400" transform="translate(128.216 1400)">[Secratariat]</text>
  <path fill="#7030A0" stroke="#FFF" stroke-miterlimit="8" stroke-width="6.875" d="M20.5 1646.5h578v289h-578z"/>
  <text fill="#FFF" font-family="Calibri,Calibri_MSFontService,sans-serif" font-size="73" font-weight="400" transform="translate(45.228 1811)">General Secretary</text>
  <path fill="#FFC000" stroke="#FFF" stroke-miterlimit="8" stroke-width="6.875" d="M164.5 2056.5h579v290h-579z"/>
  <text fill="#FFF" font-family="Calibri,Calibri_MSFontService,sans-serif" font-size="73" font-weight="400" transform="translate(200.85 2222)">Human Resource</text>
  <path fill="#156082" stroke="#FFF" stroke-miterlimit="8" stroke-width="6.875" d="M720.5 1235.5h578v289h-578z"/>
  <text fill="#FFF" font-family="Calibri,Calibri_MSFontService,sans-serif" font-size="73" font-weight="400" transform="translate(874.25 1360)">Research </text>
  <text fill="#FFF" font-family="Calibri,Calibri_MSFontService,sans-serif" font-size="73" font-weight="400" transform="translate(829.25 1440)">Department</text>
  <path fill="#156082" stroke="#FFF" stroke-miterlimit="8" stroke-width="6.875" d="M864.5 1646.5h579v289h-579z"/>
  <text fill="#FFF" font-family="Calibri,Calibri_MSFontService,sans-serif" font-size="73" font-weight="400" transform="translate(932.88 1811)">Editorial Board</text>
  <path fill="#156082" stroke="#FFF" stroke-miterlimit="8" stroke-width="6.875" d="M864.5 2056.5h579v290h-579z"/>
  <text fill="#FFF" font-family="Calibri,Calibri_MSFontService,sans-serif" font-size="73" font-weight="400" transform="translate(980.89 2181)">Educational </text>
  <text fill="#FFF" font-family="Calibri,Calibri_MSFontService,sans-serif" font-size="73" font-weight="400" transform="translate(926.89 2261)">Outreach Team</text>
  <path fill="#7030A0" stroke="#FFF" stroke-miterlimit="8" stroke-width="6.875" d="M2964.5 824.5h579v289h-579z"/>
  <text fill="#FFF" font-family="Calibri,Calibri_MSFontService,sans-serif" font-size="73" font-weight="400" transform="translate(3050.96 989)">Vice President </text>
  <path fill="#156082" stroke="#FFF" stroke-miterlimit="8" stroke-width="6.875" d="M1564.5 1235.5h579v289h-579z"/>
  <text fill="#FFF" font-family="Calibri,Calibri_MSFontService,sans-serif" font-size="73" font-weight="400" transform="translate(1621.9 1360)">[Department of  </text>
  <text fill="#FFF" font-family="Calibri,Calibri_MSFontService,sans-serif" font-size="73" font-weight="400" transform="translate(1715.9 1440)">Publicity]</text>
  <path fill="#7030A0" stroke="#FFF" stroke-miterlimit="8" stroke-width="6.875" d="M1564.5 1646.5h579v289h-579z"/>
  <text fill="#FFF" font-family="Calibri,Calibri_MSFontService,sans-serif" font-size="73" font-weight="400" transform="translate(1641.9 1771)">Chief Publicity </text>
  <text fill="#FFF" font-family="Calibri,Calibri_MSFontService,sans-serif" font-size="73" font-weight="400" transform="translate(1752.9 1851)">Officer</text>
  <path fill="#FFC000" stroke="#FFF" stroke-miterlimit="8" stroke-width="6.875" d="M1709.5 2056.5h578v290h-578z"/>
  <text fill="#FFF" font-family="Calibri,Calibri_MSFontService,sans-serif" font-size="73" font-weight="400" transform="translate(1815.53 2181)">Multi</text>
  <text fill="#FFF" font-family="Calibri,Calibri_MSFontService,sans-serif" font-size="73" font-weight="400" transform="translate(1973.53 2181)">-</text>
  <text fill="#FFF" font-family="Calibri,Calibri_MSFontService,sans-serif" font-size="73" font-weight="400" transform="translate(1995.53 2181)">media </text>
  <text fill="#FFF" font-family="Calibri,Calibri_MSFontService,sans-serif" font-size="73" font-weight="400" transform="translate(1867.53 2261)">Designer</text>
  <path fill="#FFC000" stroke="#FFF" stroke-miterlimit="8" stroke-width="6.875" d="M1709.5 2467.5h578v289h-578z"/>
  <text fill="#FFF" font-family="Calibri,Calibri_MSFontService,sans-serif" font-size="73" font-weight="400" transform="translate(1737.53 2632)">Marketing Officer</text>
  <path fill="#FFC000" stroke="#FFF" stroke-miterlimit="8" stroke-width="6.875" d="M1709.5 2878.5h578v289h-578z"/>
  <text fill="#FFF" font-family="Calibri,Calibri_MSFontService,sans-serif" font-size="73" font-weight="400" transform="translate(1737.53 3043)">Marketing Officer </text>
  <path fill="#FFC000" stroke="#FFF" stroke-miterlimit="8" stroke-width="6.875" d="M1709.5 3289.5h578v289h-578z"/>
  <text fill="#FFF" font-family="Calibri,Calibri_MSFontService,sans-serif" font-size="73" font-weight="400" transform="translate(1783.53 3454)">Video Director</text>
  <path fill="#FFC000" stroke="#FFF" stroke-miterlimit="8" stroke-width="6.875" d="M1709.5 3699.5h578v290h-578z"/>
  <text fill="#FFF" font-family="Calibri,Calibri_MSFontService,sans-serif" font-size="73" font-weight="400" transform="translate(1814.55 3865)">Video Editor</text>
  <path fill="#156082" stroke="#FFF" stroke-miterlimit="8" stroke-width="6.875" d="M2264.5 1235.5h579v289h-579z"/>
  <text fill="#FFF" font-family="Calibri,Calibri_MSFontService,sans-serif" font-size="73" font-weight="400" transform="translate(2321.93 1360)">[Department of </text>
  <text fill="#FFF" font-family="Calibri,Calibri_MSFontService,sans-serif" font-size="73" font-weight="400" transform="translate(2502.93 1440)">I.T.]</text>
  <path fill="#7030A0" stroke="#FFF" stroke-miterlimit="8" stroke-width="6.875" d="M2409.5 1646.5h578v289h-578z"/>
  <text fill="#FFF" font-family="Calibri,Calibri_MSFontService,sans-serif" font-size="73" font-weight="400" transform="translate(2458.57 1811)">Chief Technician</text>
  <path fill="#FFC000" stroke="#FFF" stroke-miterlimit="8" stroke-width="6.875" d="M2409.5 2056.5h578v290h-578z"/>
  <text fill="#FFF" font-family="Calibri,Calibri_MSFontService,sans-serif" font-size="73" font-weight="400" transform="translate(2559.56 2222)">Specialist</text>
  <path fill="#156082" stroke="#FFF" stroke-miterlimit="8" stroke-width="6.875" d="M2964.5 1235.5h579v289h-579z"/>
  <text fill="#FFF" font-family="Calibri,Calibri_MSFontService,sans-serif" font-size="73" font-weight="400" transform="translate(3021.95 1360)">[Department of </text>
  <text fill="#FFF" font-family="Calibri,Calibri_MSFontService,sans-serif" font-size="73" font-weight="400" transform="translate(3116.95 1440)">Treasury]</text>
  <path fill="#7030A0" stroke="#FFF" stroke-miterlimit="8" stroke-width="6.875" d="M3109.5 1646.5h578v289h-578z"/>
  <text fill="#FFF" font-family="Calibri,Calibri_MSFontService,sans-serif" font-size="73" font-weight="400" transform="translate(3174.6 1811)">Chief Treasurer </text>
  <path fill="#FFC000" stroke="#FFF" stroke-miterlimit="8" stroke-width="6.875" d="M3109.5 2056.5h578v290h-578z"/>
  <text fill="#FFF" font-family="Calibri,Calibri_MSFontService,sans-serif" font-size="73" font-weight="400" transform="translate(3230.6 2222)">Treasurer 1</text>
  <path fill="#FFC000" stroke="#FFF" stroke-miterlimit="8" stroke-width="6.875" d="M3109.5 2467.5h578v289h-578z"/>
  <text fill="#FFF" font-family="Calibri,Calibri_MSFontService,sans-serif" font-size="73" font-weight="400" transform="translate(3230.6 2632)">Treasurer 2</text>
  <path fill="#156082" stroke="#FFF" stroke-miterlimit="8" stroke-width="6.875" d="M3664.5 1235.5h579v289h-579z"/>
  <text fill="#FFF" font-family="Calibri,Calibri_MSFontService,sans-serif" font-size="73" font-weight="400" transform="translate(3715.99 1400)">[Business Team]</text>
  <path fill="#156082" stroke="#FFF" stroke-miterlimit="8" stroke-width="6.875" d="M4364.5 1235.5h579v289h-579z"/>
  <text fill="#FFF" font-family="Calibri,Calibri_MSFontService,sans-serif" font-size="73" font-weight="400" transform="translate(4440.01 1400)">[LIaison Team]</text>
  <path fill="#00B0F0" stroke="#FFF" stroke-miterlimit="8" stroke-width="6.875" d="M1317.5 413.5h578v290h-578z"/>
  <text fill="#FFF" font-family="Calibri,Calibri_MSFontService,sans-serif" font-size="73" font-weight="400" transform="translate(1494.58 579)">Auditor</text>
</svg>
